<svg id="icons" enable-background="new 0 0 64 64" height="512" viewBox="0 0 64 64" width="512" xmlns="http://www.w3.org/2000/svg"><path d="m22.001 16.99h19.998c.553 0 1-.447 1-1v-8.002c0-.553-.447-1-1-1h-19.998c-.553 0-1 .447-1 1v8.002c0 .553.447 1 1 1zm1-8.002h17.998v6.002h-17.998z"/><path d="m22.001 19.99h19.998c.553 0 1-.447 1-1s-.447-1-1-1h-19.998c-.553 0-1 .447-1 1s.447 1 1 1z"/><path d="m42.999 21.99c0-.553-.447-1-1-1h-19.998c-.553 0-1 .447-1 1s.447 1 1 1h19.998c.553 0 1-.447 1-1z"/><path d="m37.999 10.988h-11.998c-.553 0-1 .447-1 1s.447 1 1 1h11.998c.553 0 1-.447 1-1s-.447-1-1-1z"/><path d="m.014 62.988c0 .553.447 1 1 1h27.991c.553 0 1-.447 1-1v-21.978c0-.031-.015-.057-.018-.087v-.911c0-1.654-1.346-3-3-3h-10.985v-4.029h31.997v4.029h-11.004c-1.654 0-3 1.346-3 3v2c0 .031.015.057.018.087v20.89c0 .553.447 1 1 1h27.991c.553 0 1-.447 1-1v-21.979c0-.031-.015-.057-.018-.087v-.911c0-1.654-1.346-3-3-3h-10.987v-5.029c0-.553-.447-1-1-1h-15.985v-3.994h12.995c.553 0 1-.447 1-1v-21.977c0-.031-.015-.057-.018-.087v-.913c0-1.654-1.346-3-3-3h-23.991c-1.654 0-3 1.346-3 3v2c0 .031.015.057.018.087v20.89c0 .553.447 1 1 1h12.996v3.994h-16.012c-.553 0-1 .447-1 1v5.029h-11.006c-1.654 0-3 1.346-3 3v2c0 .031.015.057.018.087zm60.972-23.976c.551 0 .998.447 1 .998h-25.991c.001-.551.449-.998 1-.998zm-24.973 22.976v-19.978h25.974v.002c0 .031.015.057.018.087v19.89h-25.992zm-16.013-59.976h23.991c.552 0 1 .448 1 1h-25.991c0-.552.448-1 1-1zm-.982 3h25.974c0 .031.015.057.018.087v19.89h-25.992zm-16.022 34h23.991c.551 0 .999.447 1 .998h-25.991c.002-.551.449-.998 1-.998zm-.982 22.976v-19.978h25.974v.002c0 .031.015.057.018.087v19.89h-25.992z"/><path d="m5 51.986h8c.553 0 1-.447 1-1v-5.998c0-.553-.447-1-1-1h-8c-.553 0-1 .447-1 1v5.998c0 .553.447 1 1 1zm1-5.998h6v3.998h-6z"/><path d="m47 43.988h-8c-.553 0-1 .447-1 1v8c0 .553.447 1 1 1h8c.553 0 1-.447 1-1v-8c0-.552-.447-1-1-1zm-1 8h-6v-6h6z"/><path d="m25.011 43.988h-7.999c-.553 0-1 .447-1 1s.447 1 1 1h7.999c.553 0 1-.447 1-1s-.448-1-1-1z"/><path d="m25.011 46.986h-7.999c-.553 0-1 .447-1 1s.447 1 1 1h7.999c.553 0 1-.447 1-1s-.448-1-1-1z"/><path d="m25.011 49.986h-7.999c-.553 0-1 .447-1 1s.447 1 1 1h7.999c.553 0 1-.447 1-1s-.448-1-1-1z"/><path d="m47 54.99h-7.999c-.553 0-1 .447-1 1s.447 1 1 1h7.999c.553 0 1-.447 1-1s-.447-1-1-1z"/><path d="m47 57.99h-7.999c-.553 0-1 .447-1 1s.447 1 1 1h7.999c.553 0 1-.447 1-1s-.447-1-1-1z"/><path d="m59 43.988h-8c-.553 0-1 .447-1 1v8c0 .553.447 1 1 1h8c.553 0 1-.447 1-1v-8c0-.552-.447-1-1-1zm-1 8h-6v-6h6z"/><path d="m59 54.99h-7.999c-.553 0-1 .447-1 1s.447 1 1 1h7.999c.553 0 1-.447 1-1s-.447-1-1-1z"/><path d="m59 57.99h-7.999c-.553 0-1 .447-1 1s.447 1 1 1h7.999c.553 0 1-.447 1-1s-.447-1-1-1z"/><path d="m25.011 53.986h-20.011c-.553 0-1 .447-1 1v4.002c0 .553.447 1 1 1h20.011c.553 0 1-.447 1-1v-4.002c0-.552-.448-1-1-1zm-1 4.002h-18.011v-2.002h18.011z"/></svg>