<svg fill="#ffffff" id="icons" enable-background="new 0 0 64 64" height="512" viewBox="0 0 64 64" width="512" xmlns="http://www.w3.org/2000/svg"><g><path d="m3.253 63.696c.195.195.451.293.707.293s.512-.098.707-.293l4.242-4.242.002-.002 3.533-3.533c.001-.001.001-.001.002-.002l3.531-3.531c.002-.002.005-.005.007-.007l3.531-3.531.002-.002.706-.706 1.061 1.061c.195.195.451.293.707.293s.512-.098.707-.293c.391-.391.391-1.023 0-1.414l-.707-.707 39.704-39.704c.001 0 .002 0 .002-.001 1.946-1.95 1.946-5.122 0-7.071-.195-.196-.451-.293-.708-.293-.101 0-.199.027-.297.058-.025.008-.054.005-.079.016-.013.004-.023.017-.037.023-.105.048-.207.108-.294.195 0 0-.001.001-.001.001l-42.532 42.533-.707-.707c-.391-.391-1.023-.391-1.414 0s-.391 1.023 0 1.414l1.061 1.061-2.827 2.827-.002.002-3.534 3.534c-.001.001-.001.001-.002.002l-3.534 3.533c-.001.001-.001.001-.002.002l-3.531 3.531c-.002.002-.005.005-.007.007l-2.118 2.118c-.391.391-.391 1.023 0 1.414zm.707-2.121-.707-.707 1.122-1.122h1.414zm3.95-5.364h1.414l-1.535 1.535h-1.414zm3.535-3.535h1.414l-1.535 1.535h-1.414zm3.536-3.536h1.414l-1.536 1.536h-1.414zm3.829-2.414-.414.414h-1.414l1.121-1.121zm42.048-44.17c.527 1.114.343 2.485-.577 3.406 0 0-.001.001-.001.001l-39.703 39.702-1.414-1.414z"/></g></svg>