<svg height="512pt" viewBox="0 -48 512.00055 512" width="512pt" xmlns="http://www.w3.org/2000/svg"><path d="m504 384h-496c-2.464844 0-4.792969-1.136719-6.304688-3.078125-1.511718-1.9375-2.054687-4.472656-1.457031-6.859375l56-224c1.066407-4.285156 5.394531-6.925781 9.699219-5.820312 4.285156 1.070312 6.894531 5.414062 5.824219 9.703124l-53.515625 214.054688h475.507812l-34.167968-136.664062c-1.082032-4.28125 1.527343-8.625 5.820312-9.695313 4.28125-1.089844 8.625 1.527344 9.699219 5.824219l36.65625 146.597656c.597656 2.394531.0625 4.921875-1.457031 6.859375-1.511719 1.941406-3.839844 3.078125-6.304688 3.078125zm0 0"/><path d="m256 384c-4.425781 0-8-3.574219-8-8 0-59.304688 45.550781-84.925781 93.785156-112.0625l7.199219-4.058594c3.832031-2.167968 8.726563-.832031 10.894531 3.023438 2.175782 3.84375.824219 8.730468-3.023437 10.898437l-7.230469 4.078125c-47.832031 26.921875-85.625 48.167969-85.625 98.121094 0 4.425781-3.574219 8-8 8zm0 0"/><path d="m8 416c-4.425781 0-8-3.574219-8-8v-32c0-4.421875 3.574219-8 8-8s8 3.578125 8 8v32c0 4.425781-3.574219 8-8 8zm0 0"/><path d="m504 416h-496c-4.425781 0-8-3.574219-8-8 0-4.421875 3.574219-8 8-8h496c4.425781 0 8 3.578125 8 8 0 4.425781-3.574219 8-8 8zm0 0"/><path d="m504 412.671875c-4.425781 0-8-3.574219-8-8v-28.671875c0-4.421875 3.574219-8 8-8s8 3.578125 8 8v28.671875c0 4.425781-3.574219 8-8 8zm0 0"/><path d="m256 416c-4.425781 0-8-3.574219-8-8v-32c0-4.421875 3.574219-8 8-8s8 3.578125 8 8v32c0 4.425781-3.574219 8-8 8zm0 0"/><path d="m16.007812 352c-2.632812 0-5.207031-1.296875-6.734374-3.671875-2.394532-3.71875-1.3125-8.671875 2.398437-11.054687 38.855469-24.984376 76.703125-36.144532 110.097656-45.984376 66.542969-19.617187 119.101563-35.113281 158.734375-142.074218 1.527344-4.140625 6.113282-6.253906 10.28125-4.71875 4.144532 1.535156 6.253906 6.136718 4.71875 10.28125-42.414062 114.480468-101.167968 131.800781-169.207031 151.847656-33.9375 10.007812-69.03125 20.351562-105.960937 44.09375-1.351563.875-2.839844 1.28125-4.328126 1.28125zm0 0"/><path d="m160 152c-35.289062 0-64-28.710938-64-64s28.710938-64 64-64 64 28.710938 64 64-28.710938 64-64 64zm0-112c-26.472656 0-48 21.527344-48 48s21.527344 48 48 48 48-21.527344 48-48-21.527344-48-48-48zm0 0"/><path d="m160 112c-13.230469 0-24-10.769531-24-24s10.769531-24 24-24 24 10.769531 24 24-10.769531 24-24 24zm0-32c-4.414062 0-8 3.59375-8 8 0 4.410156 3.585938 8 8 8s8-3.589844 8-8c0-4.40625-3.585938-8-8-8zm0 0"/><path d="m191.921875 142c-4.195313 0-7.722656-3.265625-7.976563-7.503906-.777343-12.617188-11.296874-22.496094-23.953124-22.496094s-23.167969 9.878906-23.953126 22.496094c-.261718 4.40625-4.117187 7.847656-8.480468 7.496094-4.40625-.273438-7.765625-4.0625-7.496094-8.480469 1.304688-21.03125 18.832031-37.511719 39.929688-37.511719 21.097656 0 38.625 16.480469 39.917968 37.503906.273438 4.410156-3.085937 8.207032-7.496094 8.480469-.15625.015625-.324218.015625-.492187.015625zm0 0"/><path d="m160 232c-23.183594 0-88-98.664062-88-144 0-48.519531 39.480469-88 88-88s88 39.480469 88 88c0 45.335938-64.816406 144-88 144zm0-216c-39.703125 0-72 32.304688-72 72 0 40.425781 57.832031 121.746094 72 127.832031 14.167969-6.085937 72-87.40625 72-127.832031 0-39.695312-32.296875-72-72-72zm0 0"/><path d="m400 248c-35.289062 0-64-28.710938-64-64s28.710938-64 64-64 64 28.710938 64 64-28.710938 64-64 64zm0-112c-26.472656 0-48 21.527344-48 48s21.527344 48 48 48 48-21.527344 48-48-21.527344-48-48-48zm0 0"/><path d="m400 208c-13.230469 0-24-10.769531-24-24s10.769531-24 24-24 24 10.769531 24 24-10.769531 24-24 24zm0-32c-4.414062 0-8 3.59375-8 8 0 4.410156 3.585938 8 8 8s8-3.589844 8-8c0-4.40625-3.585938-8-8-8zm0 0"/><path d="m431.921875 238c-4.195313 0-7.722656-3.265625-7.976563-7.503906-.777343-12.617188-11.296874-22.496094-23.953124-22.496094s-23.167969 9.878906-23.953126 22.496094c-.261718 4.417968-4.039062 7.753906-8.480468 7.496094-4.40625-.273438-7.765625-4.0625-7.496094-8.480469 1.304688-21.03125 18.832031-37.511719 39.929688-37.511719 21.097656 0 38.625 16.480469 39.917968 37.503906.273438 4.417969-3.085937 8.199219-7.496094 8.480469-.15625.007813-.324218.015625-.492187.015625zm0 0"/><path d="m400 328c-23.183594 0-88-98.664062-88-144 0-48.519531 39.480469-88 88-88s88 39.480469 88 88c0 45.335938-64.816406 144-88 144zm0-216c-39.703125 0-72 32.304688-72 72 0 40.433594 57.832031 121.746094 72 127.832031 14.167969-6.097656 72-87.40625 72-127.832031 0-39.695312-32.296875-72-72-72zm0 0"/><path d="m101.929688 160h-37.929688c-4.425781 0-8-3.582031-8-8 0-4.414062 3.574219-8 8-8h37.929688c4.421874 0 8 3.585938 8 8 0 4.417969-3.578126 8-8 8zm0 0"/><path d="m326.671875 160h-108.601563c-4.421874 0-8-3.582031-8-8 0-4.414062 3.578126-8 8-8h108.601563c4.425781 0 8 3.585938 8 8 0 4.417969-3.574219 8-8 8zm0 0"/></svg>