<svg id="icons" enable-background="new 0 0 64 64" height="512" viewBox="0 0 64 64" width="512" xmlns="http://www.w3.org/2000/svg"><path d="m5.003 6.003c-.553 0-1 .447-1 1v55.997c0 .553.447 1 1 1h42.998.001.001c.553 0 1-.447 1-1v-55.997c0-.553-.447-1-1-1h-2.003v-2.003c0-.553-.447-1-1-1h-3.996v-.5c0-1.379-1.121-2.5-2.5-2.5s-2.5 1.121-2.5 2.5v.5h-3.002v-.5c0-1.379-1.121-2.5-2.5-2.5s-2.5 1.121-2.5 2.5v.5h-3v-.5c0-1.379-1.121-2.5-2.5-2.5s-2.5 1.121-2.5 2.5v.5h-3.002v-.5c0-1.379-1.121-2.5-2.5-2.5s-2.5 1.121-2.5 2.5v.5h-4c-.553 0-1 .447-1 1 0 .011.006.019.006.029v1.974zm42 2v53.997h-41v-53.997h1.003v48.991 3.003.001c0 .553.447 1 1 1h36.992c.553 0 1-.447 1-1l.002-3.003s0 0 0-.001v-48.991zm-3.004 50.995h-34.993v-1.004h34.993zm-5.995-56.498c0-.275.225-.5.5-.5s.5.225.5.5v3c0 .275-.225.5-.5.5s-.5-.225-.5-.5zm-8.002 0c0-.275.225-.5.5-.5s.5.225.5.5v3c0 .275-.225.5-.5.5s-.5-.225-.5-.5zm-8 0c0-.275.225-.5.5-.5s.5.225.5.5v3c0 .275-.225.5-.5.5s-.5-.225-.5-.5zm-8.002 0c0-.275.225-.5.5-.5s.5.225.5.5v3c0 .275-.225.5-.5.5s-.5-.225-.5-.5zm.5 5.5c1.379 0 2.5-1.121 2.5-2.5v-.5h3.002v.5c0 1.379 1.121 2.5 2.5 2.5s2.5-1.121 2.5-2.5v-.5h3v.5c0 1.379 1.121 2.5 2.5 2.5s2.5-1.121 2.5-2.5v-.5h3.002v.5c0 1.379 1.121 2.5 2.5 2.5s2.5-1.121 2.5-2.5v-.5h2.996v50.994h-34.994v-50.994h2.994v.5c0 1.379 1.121 2.5 2.5 2.5z"/><path d="m14.992 42.014h4.726l6.266 3.58v1.409h-5c-1.654 0-3 1.346-3 3s1.346 3 3 3h12c1.654 0 3-1.346 3-3s-1.346-3-3-3h-5v-1.409l6.496-3.712c.312-.178.504-.51.504-.868 0-.359-.192-.69-.504-.868l-6.496-3.711v-1.443h6.008c.553 0 1-.447 1-1v-3.999c0-.553-.447-1-1-1h-6v-4.004h6c.553 0 1-.447 1-1v-3.999c0-.553-.447-1-1-1h-6.008v-1.991h5c1.654 0 3-1.346 3-3s-1.346-3-3-3h-12c-1.654 0-3 1.346-3 3s1.346 3 3 3h5v1.991h-5.992c-.553 0-1 .447-1 1v3.999c0 .553.447 1 1 1h6v1.013h-11c-.553 0-1 .447-1 1v14.013c0 .551.447.999 1 .999zm17.991 8.989h-12c-.552 0-1-.448-1-1s.448-1 1-1h12c.552 0 1 .448 1 1s-.448 1-1 1zm-12-38.005h12c.552 0 1 .448 1 1s-.448 1-1 1h-12c-.552 0-1-.448-1-1s.449-1 1-1zm.008 7.991h5.948c.016.001.028.009.044.009s.028-.008.044-.009h5.964v1.999h-12zm5.992 22.873-4.984-2.849 4.984-2.848 4.984 2.848zm6.008-10.871h-12v-1.999h12zm-7-3.999h-6c-.553 0-1 .447-1 1v3.999c0 .553.447 1 1 1h5.992v1.443l-6.266 3.579h-3.726v-12.012h9.999v.991z"/><path d="m58.997 33.998c.553 0 1-.447 1-1v-12c0-1.654-1.346-3-3-3 0-1.654-1.346-3-3-3s-3 1.346-3 3v34c0 .031.015.058.018.088.006.067.021.131.04.197s.044.127.076.187c.015.026.017.057.034.083l1.832 2.748v.697c0 .553.447 1 1 1s1-.447 1-1v-.697l1.832-2.748c.018-.026.02-.056.034-.083.032-.06.057-.12.076-.187s.034-.13.04-.197c.003-.03.018-.057.018-.088v-32c.552 0 1 .448 1 1v12c0 .553.447 1 1 1zm-6-5h2v20h-2zm1 24.197-1-1.5v-.697h2v.697zm0-36.197c.552 0 1 .448 1 1v9h-2v-9c0-.552.448-1 1-1z"/></svg>