<svg fill="#ffffff" id="icons" enable-background="new 0 0 64 64" height="512" viewBox="0 0 64 64" width="512" xmlns="http://www.w3.org/2000/svg"><path d="m29.03 5c.552 0 1-.448 1-1s-.448-1-1-1h-.01c-.552 0-.994.448-.994 1s.452 1 1.004 1z"/><path d="m32 5h3c.553 0 1-.448 1-1s-.447-1-1-1h-3c-.553 0-1 .448-1 1s.447 1 1 1z"/><path d="m21 64h22c3.859 0 7-3.141 7-7v-50.998c0-3.304-2.685-5.992-5.987-6-.004 0-.008-.002-.013-.002h-24c-3.309 0-6 2.691-6 6v51c0 3.859 3.141 7 7 7zm22-2h-22c-2.418 0-4.438-1.726-4.9-4.01 1.264 1.241 2.994 2.01 4.9 2.01h22c1.906 0 3.636-.769 4.9-2.01-.462 2.284-2.482 4.01-4.9 4.01zm5-12h-32v-41.998h32zm-32 2h16 16v1c0 2.757-2.243 5-5 5h-11-11c-2.757 0-5-2.243-5-5zm4-50h23.99c.004 0 .006.002.01.002 2.206 0 4 1.794 4 4h-32v-.002c0-2.206 1.794-4 4-4z"/><path d="m29 55c0 1.654 1.346 3 3 3s3-1.346 3-3-1.346-3-3-3-3 1.346-3 3zm3-1c.552 0 1 .448 1 1s-.448 1-1 1-1-.448-1-1 .448-1 1-1z"/></svg>