<svg height="512pt" viewBox="-24 0 512 512.002" width="512pt" xmlns="http://www.w3.org/2000/svg"><path d="m40.003906 512.003906c-22.054687 0-39.99999975-17.945312-39.99999975-40 0-4.425781 3.57812475-8 7.99999975-8 4.425782 0 8 3.574219 8 8 0 13.230469 10.769532 24 24 24 4.425782 0 8 3.574219 8 8 0 4.421875-3.574218 8-8 8zm0 0"/><path d="m424.003906 512.003906c-4.421875 0-8-3.578125-8-8 0-4.425781 3.578125-8 8-8 13.234375 0 24-10.769531 24-24 0-4.425781 3.578125-8 8-8 4.425782 0 8 3.574219 8 8 0 22.054688-17.941406 40-40 40zm0 0"/><path d="m424.003906 512.003906h-384c-4.421875 0-8-3.578125-8-8 0-4.425781 3.578125-8 8-8h384c4.425782 0 8 3.574219 8 8 0 4.421875-3.574218 8-8 8zm0 0"/><path d="m40.003906 480.003906c-22.054687 0-39.99999975-17.945312-39.99999975-40 0-4.425781 3.57812475-8 7.99999975-8 4.425782 0 8 3.574219 8 8 0 13.230469 10.769532 24 24 24 4.425782 0 8 3.574219 8 8 0 4.421875-3.574218 8-8 8zm0 0"/><path d="m424.003906 480.003906c-4.421875 0-8-3.578125-8-8 0-4.425781 3.578125-8 8-8 13.234375 0 24-10.769531 24-24 0-4.425781 3.578125-8 8-8 4.425782 0 8 3.574219 8 8 0 22.054688-17.941406 40-40 40zm0 0"/><path d="m424.003906 480.003906h-384c-4.421875 0-8-3.578125-8-8 0-4.425781 3.578125-8 8-8h384c4.425782 0 8 3.574219 8 8 0 4.421875-3.574218 8-8 8zm0 0"/><path d="m8.003906 480.003906c-4.421875 0-7.99999975-3.578125-7.99999975-8v-32c0-4.425781 3.57812475-8 7.99999975-8 4.425782 0 8 3.574219 8 8v32c0 4.421875-3.574218 8-8 8zm0 0"/><path d="m456.003906 480.003906c-4.421875 0-8-3.578125-8-8v-32c0-4.425781 3.578125-8 8-8 4.425782 0 8 3.574219 8 8v32c0 4.421875-3.574218 8-8 8zm0 0"/><path d="m8.011719 448.003906c-.472657 0-.933594-.042968-1.414063-.128906-4.351562-.777344-7.242187-4.929688-6.472656-9.28125l40-224.007812c.769531-4.351563 4.917969-7.273438 9.28125-6.472657 4.351562.777344 7.238281 4.929688 6.46875 9.28125l-40 224.007813c-.6875 3.878906-4.054688 6.601562-7.863281 6.601562zm0 0"/><path d="m455.996094 448.003906c-3.808594 0-7.175782-2.722656-7.863282-6.59375l-40-224c-.777343-4.351562 2.121094-8.503906 6.472657-9.28125 4.375-.78125 8.503906 2.121094 9.277343 6.472656l40 224c.777344 4.351563-2.117187 8.503907-6.46875 9.28125-.480468.078126-.945312.121094-1.417968.121094zm0 0"/><path d="m432.003906 224.003906h-400c-4.421875 0-8-3.578125-8-8 0-4.425781 3.578125-8 8-8h400c4.425782 0 8 3.574219 8 8 0 4.421875-3.574218 8-8 8zm0 0"/><path d="m72.003906 440.003906c-13.464844 0-24-8.785156-24-20 0-11.21875 10.535156-20 24-20s24 8.78125 24 20c0 11.214844-10.535156 20-24 20zm0-24c-4.960937 0-8 2.582032-8 4 0 1.414063 3.039063 4 8 4 4.960938 0 8-2.585937 8-4 0-1.417968-3.039062-4-8-4zm0 0"/><path d="m72.003906 448.003906c-4.421875 0-8-3.578125-8-8v-8c0-4.425781 3.578125-8 8-8 4.425782 0 8 3.574219 8 8v8c0 4.421875-3.574218 8-8 8zm0 0"/><path d="m152.003906 440.003906c-13.464844 0-24-8.785156-24-20 0-11.21875 10.535156-20 24-20s24 8.78125 24 20c0 11.214844-10.535156 20-24 20zm0-24c-4.960937 0-8 2.582032-8 4 0 1.414063 3.039063 4 8 4 4.960938 0 8-2.585937 8-4 0-1.417968-3.039062-4-8-4zm0 0"/><path d="m152.003906 448.003906c-4.421875 0-8-3.578125-8-8v-8c0-4.425781 3.578125-8 8-8 4.425782 0 8 3.574219 8 8v8c0 4.421875-3.574218 8-8 8zm0 0"/><path d="m232.003906 440.003906c-13.464844 0-24-8.785156-24-20 0-11.21875 10.535156-20 24-20s24 8.78125 24 20c0 11.214844-10.535156 20-24 20zm0-24c-4.960937 0-8 2.582032-8 4 0 1.414063 3.039063 4 8 4 4.960938 0 8-2.585937 8-4 0-1.417968-3.039062-4-8-4zm0 0"/><path d="m232.003906 448.003906c-4.421875 0-8-3.578125-8-8v-8c0-4.425781 3.578125-8 8-8 4.425782 0 8 3.574219 8 8v8c0 4.421875-3.574218 8-8 8zm0 0"/><path d="m312.003906 440.003906c-13.464844 0-24-8.785156-24-20 0-11.21875 10.535156-20 24-20s24 8.78125 24 20c0 11.214844-10.535156 20-24 20zm0-24c-4.960937 0-8 2.582032-8 4 0 1.414063 3.039063 4 8 4 4.960938 0 8-2.585937 8-4 0-1.417968-3.039062-4-8-4zm0 0"/><path d="m312.003906 448.003906c-4.421875 0-8-3.578125-8-8v-8c0-4.425781 3.578125-8 8-8 4.425782 0 8 3.574219 8 8v8c0 4.421875-3.574218 8-8 8zm0 0"/><path d="m112.003906 400.003906c-13.464844 0-24-8.785156-24-20 0-11.21875 10.535156-20 24-20s24 8.78125 24 20c0 11.214844-10.535156 20-24 20zm0-24c-4.960937 0-8 2.582032-8 4 0 1.414063 3.039063 4 8 4 4.960938 0 8-2.585937 8-4 0-1.417968-3.039062-4-8-4zm0 0"/><path d="m112.003906 408.003906c-4.421875 0-8-3.578125-8-8v-8c0-4.425781 3.578125-8 8-8 4.425782 0 8 3.574219 8 8v8c0 4.421875-3.574218 8-8 8zm0 0"/><path d="m192.003906 400.003906c-13.464844 0-24-8.785156-24-20 0-11.21875 10.535156-20 24-20s24 8.78125 24 20c0 11.214844-10.535156 20-24 20zm0-24c-4.960937 0-8 2.582032-8 4 0 1.414063 3.039063 4 8 4 4.960938 0 8-2.585937 8-4 0-1.417968-3.039062-4-8-4zm0 0"/><path d="m192.003906 408.003906c-4.421875 0-8-3.578125-8-8v-8c0-4.425781 3.578125-8 8-8 4.425782 0 8 3.574219 8 8v8c0 4.421875-3.574218 8-8 8zm0 0"/><path d="m272.003906 400.003906c-13.464844 0-24-8.785156-24-20 0-11.21875 10.535156-20 24-20s24 8.78125 24 20c0 11.214844-10.535156 20-24 20zm0-24c-4.960937 0-8 2.582032-8 4 0 1.414063 3.039063 4 8 4 4.960938 0 8-2.585937 8-4 0-1.417968-3.039062-4-8-4zm0 0"/><path d="m272.003906 408.003906c-4.421875 0-8-3.578125-8-8v-8c0-4.425781 3.578125-8 8-8 4.425782 0 8 3.574219 8 8v8c0 4.421875-3.574218 8-8 8zm0 0"/><path d="m352.003906 400.003906c-13.464844 0-24-8.785156-24-20 0-11.21875 10.535156-20 24-20s24 8.78125 24 20c0 11.214844-10.535156 20-24 20zm0-24c-4.960937 0-8 2.582032-8 4 0 1.414063 3.039063 4 8 4 4.960938 0 8-2.585937 8-4 0-1.417968-3.039062-4-8-4zm0 0"/><path d="m352.003906 408.003906c-4.421875 0-8-3.578125-8-8v-8c0-4.425781 3.578125-8 8-8 4.425782 0 8 3.574219 8 8v8c0 4.421875-3.574218 8-8 8zm0 0"/><path d="m392.003906 440.003906c-13.464844 0-24-8.785156-24-20 0-11.21875 10.535156-20 24-20s24 8.78125 24 20c0 11.214844-10.535156 20-24 20zm0-24c-4.960937 0-8 2.582032-8 4 0 1.414063 3.039063 4 8 4 4.960938 0 8-2.585937 8-4 0-1.417968-3.039062-4-8-4zm0 0"/><path d="m392.003906 448.003906c-4.421875 0-8-3.578125-8-8v-8c0-4.425781 3.578125-8 8-8 4.425782 0 8 3.574219 8 8v8c0 4.421875-3.574218 8-8 8zm0 0"/><path d="m72.003906 360.003906c-13.464844 0-24-8.785156-24-20 0-11.21875 10.535156-20 24-20s24 8.78125 24 20c0 11.214844-10.535156 20-24 20zm0-24c-4.960937 0-8 2.582032-8 4 0 1.414063 3.039063 4 8 4 4.960938 0 8-2.585937 8-4 0-1.417968-3.039062-4-8-4zm0 0"/><path d="m72.003906 368.003906c-4.421875 0-8-3.578125-8-8v-8c0-4.425781 3.578125-8 8-8 4.425782 0 8 3.574219 8 8v8c0 4.421875-3.574218 8-8 8zm0 0"/><path d="m152.003906 360.003906c-13.464844 0-24-8.785156-24-20 0-11.21875 10.535156-20 24-20s24 8.78125 24 20c0 11.214844-10.535156 20-24 20zm0-24c-4.960937 0-8 2.582032-8 4 0 1.414063 3.039063 4 8 4 4.960938 0 8-2.585937 8-4 0-1.417968-3.039062-4-8-4zm0 0"/><path d="m152.003906 368.003906c-4.421875 0-8-3.578125-8-8v-8c0-4.425781 3.578125-8 8-8 4.425782 0 8 3.574219 8 8v8c0 4.421875-3.574218 8-8 8zm0 0"/><path d="m232.003906 360.003906c-13.464844 0-24-8.785156-24-20 0-11.21875 10.535156-20 24-20s24 8.78125 24 20c0 11.214844-10.535156 20-24 20zm0-24c-4.960937 0-8 2.582032-8 4 0 1.414063 3.039063 4 8 4 4.960938 0 8-2.585937 8-4 0-1.417968-3.039062-4-8-4zm0 0"/><path d="m232.003906 368.003906c-4.421875 0-8-3.578125-8-8v-8c0-4.425781 3.578125-8 8-8 4.425782 0 8 3.574219 8 8v8c0 4.421875-3.574218 8-8 8zm0 0"/><path d="m312.003906 360.003906c-13.464844 0-24-8.785156-24-20 0-11.21875 10.535156-20 24-20s24 8.78125 24 20c0 11.214844-10.535156 20-24 20zm0-24c-4.960937 0-8 2.582032-8 4 0 1.414063 3.039063 4 8 4 4.960938 0 8-2.585937 8-4 0-1.417968-3.039062-4-8-4zm0 0"/><path d="m312.003906 368.003906c-4.421875 0-8-3.578125-8-8v-8c0-4.425781 3.578125-8 8-8 4.425782 0 8 3.574219 8 8v8c0 4.421875-3.574218 8-8 8zm0 0"/><path d="m392.003906 360.003906c-13.464844 0-24-8.785156-24-20 0-11.21875 10.535156-20 24-20s24 8.78125 24 20c0 11.214844-10.535156 20-24 20zm0-24c-4.960937 0-8 2.582032-8 4 0 1.414063 3.039063 4 8 4 4.960938 0 8-2.585937 8-4 0-1.417968-3.039062-4-8-4zm0 0"/><path d="m392.003906 368.003906c-4.421875 0-8-3.578125-8-8v-8c0-4.425781 3.578125-8 8-8 4.425782 0 8 3.574219 8 8v8c0 4.421875-3.574218 8-8 8zm0 0"/><path d="m232.003906 288.003906c-39.703125 0-72-32.296875-72-72 0-4.425781 3.578125-8 8-8 4.425782 0 8 3.574219 8 8 0 30.871094 25.128906 56 56 56s56-25.128906 56-56c0-4.425781 3.578125-8 8-8 4.425782 0 8 3.574219 8 8 0 39.703125-32.296875 72-72 72zm0 0"/><path d="m232.003906 256.003906c-22.054687 0-40-17.945312-40-40 0-4.425781 3.578125-8 8-8 4.425782 0 8 3.574219 8 8 0 13.230469 10.769532 24 24 24 13.234375 0 24-10.769531 24-24 0-4.425781 3.578125-8 8-8 4.425782 0 8 3.574219 8 8 0 22.054688-17.941406 40-40 40zm0 0"/><path d="m232.003906 312.003906c-67.34375 0-128.582031-34.320312-163.824218-91.808594-2.3125-3.769531-1.128907-8.699218 2.640624-11 3.777344-2.3125 8.695313-1.121093 11 2.640626 32.3125 52.703124 88.449219 84.167968 150.183594 84.167968 61.738282 0 117.863282-31.472656 150.167969-84.179687 2.304687-3.765625 7.214844-4.941407 11-2.636719 3.769531 2.300781 4.953125 7.230469 2.640625 11-35.230469 57.488281-96.464844 91.816406-163.808594 91.816406zm0 0"/><path d="m71.980469 176.003906h-39.976563c-4.421875 0-8-3.578125-8-8 0-4.425781 3.578125-8 8-8h39.976563c4.425781 0 8 3.574219 8 8 0 4.421875-3.574219 8-8 8zm0 0"/><path d="m432.003906 224.003906c-4.421875 0-8-3.578125-8-8v-48c0-4.425781 3.578125-8 8-8 4.425782 0 8 3.574219 8 8v48c0 4.421875-3.574218 8-8 8zm0 0"/><path d="m32.003906 224.003906c-4.421875 0-8-3.578125-8-8v-48c0-4.425781 3.578125-8 8-8 4.425782 0 8 3.574219 8 8v48c0 4.421875-3.574218 8-8 8zm0 0"/><path d="m456.003906 184.003906h-24c-4.421875 0-8-3.578125-8-8 0-4.425781 3.578125-8 8-8h24c4.425782 0 8 3.574219 8 8 0 4.421875-3.574218 8-8 8zm0 0"/><path d="m456.003906 216.003906c-4.421875 0-8-3.578125-8-8v-32c0-4.425781 3.578125-8 8-8 4.425782 0 8 3.574219 8 8v32c0 4.421875-3.574218 8-8 8zm0 0"/><path d="m456.003906 216.003906h-24c-4.421875 0-8-3.578125-8-8 0-4.425781 3.578125-8 8-8h24c4.425782 0 8 3.574219 8 8 0 4.421875-3.574218 8-8 8zm0 0"/><path d="m32.003906 184.003906h-24c-4.421875 0-7.99999975-3.578125-7.99999975-8 0-4.425781 3.57812475-8 7.99999975-8h24c4.425782 0 8 3.574219 8 8 0 4.421875-3.574218 8-8 8zm0 0"/><path d="m8.003906 216.003906c-4.421875 0-7.99999975-3.578125-7.99999975-8v-32c0-4.425781 3.57812475-8 7.99999975-8 4.425782 0 8 3.574219 8 8v32c0 4.421875-3.574218 8-8 8zm0 0"/><path d="m32.003906 216.003906h-24c-4.421875 0-7.99999975-3.578125-7.99999975-8 0-4.425781 3.57812475-8 7.99999975-8h24c4.425782 0 8 3.574219 8 8 0 4.421875-3.574218 8-8 8zm0 0"/><path d="m432.003906 176.003906h-40c-4.421875 0-8-3.578125-8-8 0-4.425781 3.578125-8 8-8h40c4.425782 0 8 3.574219 8 8 0 4.421875-3.574218 8-8 8zm0 0"/><path d="m232.003906 288.003906c-4.421875 0-8-3.578125-8-8v-8c0-4.425781 3.578125-8 8-8 4.425782 0 8 3.574219 8 8v8c0 4.421875-3.574218 8-8 8zm0 0"/><path d="m264.011719 279.425781c-2.765625 0-5.453125-1.433593-6.933594-4l-4-6.917969c-2.210937-3.824218-.898437-8.722656 2.925781-10.929687 3.816406-2.207031 8.710938-.902344 10.929688 2.929687l4 6.917969c2.207031 3.824219.894531 8.71875-2.929688 10.929688-1.253906.726562-2.632812 1.070312-3.992187 1.070312zm0 0"/><path d="m287.421875 256.003906c-1.359375 0-2.738281-.347656-3.992187-1.074218l-6.921876-4c-3.832031-2.207032-5.144531-7.105469-2.933593-10.925782 2.207031-3.832031 7.109375-5.152344 10.925781-2.929687l6.921875 4c3.832031 2.207031 5.144531 7.113281 2.925781 10.929687-1.480468 2.566406-4.167968 4-6.925781 4zm0 0"/><path d="m296.003906 224.003906h-8c-4.421875 0-8-3.578125-8-8 0-4.425781 3.578125-8 8-8h8c4.425782 0 8 3.574219 8 8 0 4.421875-3.574218 8-8 8zm0 0"/><path d="m176.003906 224.003906h-8c-4.421875 0-8-3.578125-8-8 0-4.425781 3.578125-8 8-8h8c4.425782 0 8 3.574219 8 8 0 4.421875-3.574218 8-8 8zm0 0"/><path d="m176.589844 256.003906c-2.769532 0-5.457032-1.433594-6.9375-4-2.207032-3.824218-.894532-8.722656 2.929687-10.929687l6.917969-4c3.816406-2.214844 8.71875-.902344 10.929688 2.929687 2.207031 3.820313.894531 8.71875-2.929688 10.925782l-6.917969 4c-1.257812.726562-2.632812 1.074218-3.992187 1.074218zm0 0"/><path d="m199.996094 279.425781c-1.359375 0-2.734375-.34375-3.992188-1.070312-3.832031-2.210938-5.144531-7.113281-2.925781-10.929688l4-6.917969c2.214844-3.832031 7.101563-5.144531 10.925781-2.929687 3.824219 2.214844 5.144532 7.113281 2.929688 10.929687l-4 6.917969c-1.480469 2.566407-4.167969 4-6.9375 4zm0 0"/><path d="m216.070312 223.507812c-4.425781 0-8-3.578124-8-8v-31.503906c0-4.425781 3.574219-8 8-8 4.421876 0 8 3.574219 8 8v31.503906c0 4.414063-3.578124 8-8 8zm0 0"/><path d="m248.003906 223.507812c-4.421875 0-8-3.578124-8-8v-31.503906c0-4.425781 3.578125-8 8-8 4.425782 0 8 3.574219 8 8v31.503906c0 4.414063-3.574218 8-8 8zm0 0"/><path d="m248.003906 192.003906h-31.933594c-4.425781 0-8-3.578125-8-8 0-4.425781 3.574219-8 8-8h31.933594c4.425782 0 8 3.574219 8 8 0 4.421875-3.574218 8-8 8zm0 0"/><path d="m232.003906 192.003906c-4.421875 0-8-3.578125-8-8v-8c0-4.425781 3.578125-8 8-8 4.425782 0 8 3.574219 8 8v8c0 4.421875-3.574218 8-8 8zm0 0"/><path d="m176.019531 112.003906h-56c-4.421875 0-8-3.578125-8-8 0-4.425781 3.578125-8 8-8h56c4.425781 0 8 3.574219 8 8 0 4.421875-3.574219 8-8 8zm0 0"/><path d="m343.988281 112.003906h-135.96875c-4.421875 0-8-3.578125-8-8 0-4.425781 3.578125-8 8-8h135.96875c4.425781 0 8 3.574219 8 8 0 4.421875-3.574219 8-8 8zm0 0"/><path d="m184.019531 176.003906h-64c-4.421875 0-8-3.578125-8-8 0-4.425781 3.578125-8 8-8h64c4.425781 0 8 3.574219 8 8 0 4.421875-3.574219 8-8 8zm0 0"/><path d="m215.988281 144.003906h-95.96875c-4.421875 0-8-3.578125-8-8 0-4.425781 3.578125-8 8-8h95.96875c4.425781 0 8 3.574219 8 8 0 4.421875-3.574219 8-8 8zm0 0"/><path d="m343.988281 144.003906h-96c-4.421875 0-8-3.578125-8-8 0-4.425781 3.578125-8 8-8h96c4.425781 0 8 3.574219 8 8 0 4.421875-3.574219 8-8 8zm0 0"/><path d="m71.980469 223.507812c-4.421875 0-8-3.578124-8-8v-207.503906c0-4.425781 3.578125-7.99999975 8-7.99999975 4.425781 0 8 3.57421875 8 7.99999975v207.503906c0 4.414063-3.574219 8-8 8zm0 0"/><path d="m392.003906 223.507812c-4.421875 0-8-3.578124-8-8v-159.503906c0-4.425781 3.578125-8 8-8 4.425782 0 8 3.574219 8 8v159.503906c0 4.414063-3.574218 8-8 8zm0 0"/><path d="m392.003906 64.003906c-2.046875 0-4.09375-.785156-5.65625-2.347656l-48-48c-3.128906-3.125-3.128906-8.183594 0-11.308594 3.128906-3.128906 8.183594-3.128906 11.3125 0l48 48c3.128906 3.125 3.128906 8.183594 0 11.308594-1.558594 1.5625-3.609375 2.347656-5.65625 2.347656zm0 0"/><path d="m344.003906 16.003906h-272.023437c-4.421875 0-8-3.578125-8-8 0-4.425781 3.578125-7.99999975 8-7.99999975h272.023437c4.425782 0 8 3.57421875 8 7.99999975 0 4.421875-3.574218 8-8 8zm0 0"/><path d="m344.003906 64.003906c-4.421875 0-8-3.578125-8-8v-48c0-4.425781 3.578125-7.99999975 8-7.99999975 4.425782 0 8 3.57421875 8 7.99999975v48c0 4.421875-3.574218 8-8 8zm0 0"/><path d="m392.003906 64.003906h-48c-4.421875 0-8-3.578125-8-8 0-4.425781 3.578125-8 8-8h48c4.425782 0 8 3.574219 8 8 0 4.421875-3.574218 8-8 8zm0 0"/></svg>